<svg xmlns="http://www.w3.org/2000/svg" width="194" height="132.696" viewBox="0 0 194 132.696"><defs><style>.a{fill:#ff6b00;}</style></defs><path class="a" d="M55.47,66.736A2.05,2.05,0,0,1,53.14,64.7V61.146a.555.555,0,0,1,1.092,0V64.7a1.239,1.239,0,0,0,2.477,0V61.146a.5.5,0,0,1,.538-.456.515.515,0,0,1,.554.456V64.7A2.058,2.058,0,0,1,55.47,66.736Z" transform="translate(33.455 38.208)"/><path class="a" d="M57.61,61.13a.5.5,0,0,1,.538-.44.487.487,0,0,1,.538.44V66.3a.549.549,0,0,1-1.076,0Z" transform="translate(36.269 38.208)"/><path class="a" d="M61.387,61.6H60.2a.487.487,0,0,1-.538-.424.536.536,0,0,1,.538-.44h3.471c.277,0,.554.2.554.44,0,.228-.261.424-.554.424h-1.19v4.677a.549.549,0,0,1-1.076,0V61.6Z" transform="translate(37.56 38.24)"/><path class="a" d="M67.647,66.623H64.274a.506.506,0,0,1-.554-.473.645.645,0,0,1,.114-.31c.489-.668,2.428-3.536,2.9-4.221H64.258a.449.449,0,1,1,0-.88H67.6a.521.521,0,0,1,.57.456.588.588,0,0,1-.114.31l-2.933,4.253h2.526a.442.442,0,1,1,0,.864Z" transform="translate(40.116 38.24)"/><path class="a" d="M71.233,66.623H68.626c-.407,0-.766-.114-.766-.489v-4.9a.567.567,0,0,1,.6-.489h2.673a.5.5,0,0,1,.538.44.486.486,0,0,1-.538.424h-2.2V63.25h2c.261,0,.538.179.538.424a.487.487,0,0,1-.538.44h-2v1.662h2.3c.277,0,.538.179.538.407a.5.5,0,0,1-.538.44Z" transform="translate(42.722 38.24)"/><path class="a" d="M75.33,66.491,72.772,62.58V66.3a.527.527,0,0,1-.554.44.51.51,0,0,1-.538-.44V61.163a.512.512,0,0,1,.57-.473.676.676,0,0,1,.538.244c.44.636,2.1,3.243,2.558,3.911V61.13a.514.514,0,0,1,.554-.44.5.5,0,0,1,.538.44v5.133a.528.528,0,0,1-.587.473.676.676,0,0,1-.538-.244Z" transform="translate(45.127 38.208)"/><path class="a" d="M78.007,66.629H76.9a.572.572,0,0,1-.619-.505V61.235a.584.584,0,0,1,.619-.505h1.108c2.118,0,2.852,1.027,2.852,2.167v1.5C80.859,65.554,80.142,66.629,78.007,66.629Zm1.76-3.732c0-.733-.424-1.3-1.6-1.3h-.815v4.172h.815c1.19,0,1.6-.619,1.6-1.369V62.9Z" transform="translate(48.023 38.234)"/><path class="a" d="M81.506,64.568c0,.831.326,1.336,1.336,1.336a1.862,1.862,0,0,0,.961-.244V64.112H83.07a.428.428,0,1,1,0-.847h1.124c.359,0,.684.163.684.489v1.923c0,.733-1.141,1.027-2.086,1.027-1.63,0-2.363-.847-2.363-2.151V62.841c0-1.3.733-2.151,2.363-2.151.961,0,1.89.375,1.89.8a.464.464,0,0,1-.505.407.8.8,0,0,1-.391-.13l-.049-.033a1.786,1.786,0,0,0-.9-.228c-1.01,0-1.336.521-1.336,1.336v1.711Z" transform="translate(50.636 38.208)"/><path class="a" d="M87.878,64.058c.489.652.978,1.3,1.45,1.955a.432.432,0,0,1,.081.228.536.536,0,0,1-.554.456.547.547,0,0,1-.456-.2l-1.711-2.347h-.9v2.118a.527.527,0,0,1-.554.44.5.5,0,0,1-.538-.44V61.255a.578.578,0,0,1,.6-.505h1.711c1.727,0,2.3.864,2.3,1.711a1.613,1.613,0,0,1-1.45,1.6ZM87,61.6h-1.19v1.695h1.255c.766,0,1.19-.293,1.19-.831,0-.424-.244-.864-1.255-.864Z" transform="translate(53.324 38.246)"/><path class="a" d="M88.96,64.562V62.851c0-1.173.684-2.151,2.412-2.151s2.412.978,2.412,2.151v1.711a2.426,2.426,0,0,1-4.824,0Zm1.076-1.711v1.711a1.337,1.337,0,0,0,2.672,0V62.851a1.337,1.337,0,0,0-2.672,0Z" transform="translate(56.006 38.215)"/><path class="a" d="M96.823,66.623H94.216c-.407,0-.766-.114-.766-.489v-4.9a.567.567,0,0,1,.6-.489h2.672a.5.5,0,0,1,.538.44.486.486,0,0,1-.538.424h-2.2V63.25h2c.261,0,.538.179.538.424a.487.487,0,0,1-.538.44h-2v1.662h2.3c.277,0,.538.179.538.407a.5.5,0,0,1-.538.44Z" transform="translate(58.833 38.24)"/><path class="a" d="M98.366,64.543v1.711a.522.522,0,0,1-.538.456.51.51,0,0,1-.538-.456V61.235a.584.584,0,0,1,.619-.505h1.45c1.744,0,2.363.913,2.363,1.907,0,1.206-.929,1.89-2.363,1.89h-.978Zm0-.847h.978c.831,0,1.287-.326,1.287-1.043,0-.521-.228-1.043-1.287-1.043h-.978Z" transform="translate(61.251 38.234)"/><path class="a" d="M30.726,51.933c0-1.271-.668-1.793-1.923-1.793-1.532,0-2.363.8-2.363,2.07v1.369c1.027.1,1.988.13,2.3.13,1.206,0,1.988-.407,1.988-1.793Z" transform="translate(16.646 31.567)"/><path class="a" d="M43.11,55.805v.1c0,1.059.6,1.467,1.988,1.467a3.92,3.92,0,0,0,2.493-.831v-2.3a12.081,12.081,0,0,0-2.265-.261c-1.858,0-2.2.864-2.2,1.825Z" transform="translate(27.141 33.984)"/><path class="a" d="M87.084,114.314c-2.607-2.363-3.8-3.634-3.8-6.372V11.1c0-6.013-5-11.1-13.819-11.1S55.65,4.921,55.65,11.1V42.222c-7.2-2.721-11.407-3.455-17.616-3.455C9.4,38.767,0,54.786,0,76.459V97.024c0,21.3,13.411,35.671,36.633,35.671,10.217,0,18.414-3.1,28.224-8.017,3,4.009,7.007,6.909,12.01,6.909,6.209,0,13-3.829,13-11.1a7.654,7.654,0,0,0-2.8-6.192ZM33.748,94.71A2.4,2.4,0,0,1,31.825,93.5a8.971,8.971,0,0,1-4.514,1.4c-3.715,0-5.85-2.526-5.85-6.258V85.031c0-3.8,1.5-6.616,6.078-6.616a6.524,6.524,0,0,1,2.819.6V73.559a1.973,1.973,0,0,1,2.2-1.955,1.991,1.991,0,0,1,2.2,1.955V90.571c0,.473.2.7.6,1.124a1.382,1.382,0,0,1,.44,1.092,2,2,0,0,1-2.086,1.955Zm11.9-3.487a6.944,6.944,0,0,0,2.884-.7,2.051,2.051,0,0,1,.961-.2,1.761,1.761,0,0,1,1.988,1.76c0,2.233-4.09,2.819-6.143,2.819-4.221,0-6.649-2.428-6.649-5.589V83.972c0-3.227,2.363-5.687,6.812-5.687,4.188,0,6.258,2.2,6.258,5.426s-1.89,4.856-6.209,4.856a16.624,16.624,0,0,1-2.461-.2v1.059C43.086,90.522,43.917,91.223,45.644,91.223ZM60.93,94.808c-4.954,0-6.225-2.428-6.225-6.779v-12.4a2.215,2.215,0,0,1,4.4,0v3.552h2.363a1.916,1.916,0,1,1,0,3.813H59.1v4.824c0,2.363.2,3.194,1.727,3.194.293,0,.473-.033.538-.033,2.021,0,2.624.538,2.624,1.727C63.993,94.564,62.527,94.808,60.93,94.808Zm17.681,0a2.973,2.973,0,0,1-2.721-1.336,6.455,6.455,0,0,1-4.318,1.434c-3.715,0-5.687-2.021-5.687-5.052v-.1q0-4.889,6.323-4.889a8.277,8.277,0,0,1,2.526.326V84.167c0-1.5-.8-2.2-2.428-2.2a4.743,4.743,0,0,0-2.086.505A2.788,2.788,0,0,1,69,82.8a1.8,1.8,0,0,1-1.858-1.858c0-1.89,2.819-2.656,5.459-2.656,4.628,0,6.518,2.3,6.518,6.616v5.948c0,.961.473.864,1.027,1.092a1.147,1.147,0,0,1,.733,1.222c0,1.027-.6,1.662-2.3,1.662Z"/><path class="a" d="M52.58,54.12c0-3.52,2.1-6.29,6.812-6.29,1.939,0,5.622.456,5.622,2.868,0,.782-.391,1.678-2.037,1.678a3.032,3.032,0,0,1-1.092-.2,5.346,5.346,0,0,0-2.233-.554,2.219,2.219,0,0,0-2.526,2.493v4.449a2.213,2.213,0,0,0,2.526,2.493,5.153,5.153,0,0,0,2.233-.554,2.353,2.353,0,0,1,1.027-.2c1.711,0,2.1.929,2.1,1.678,0,2.363-3.683,2.868-5.655,2.868-4.644,0-6.779-2.77-6.779-6.29V54.12Z" transform="translate(33.103 30.112)"/><path class="a" d="M61.6,58.782v-4.9c0-3.455,2.461-6.127,7.138-6.127s7.138,2.672,7.138,6.127v4.9c0,3.455-2.461,6.127-7.138,6.127S61.6,62.237,61.6,58.782Zm9.745,0V53.845c0-1.353-.9-2.2-2.607-2.2s-2.607.847-2.607,2.2v4.938c0,1.385.9,2.233,2.607,2.233S71.345,60.167,71.345,58.782Z" transform="translate(38.781 30.062)"/><path class="a" d="M77.485,62.818a2.282,2.282,0,0,1-4.53,0V52.845c0-1.092-.13-1.19-.261-1.385a1.913,1.913,0,0,1-.554-1.287,2.029,2.029,0,0,1,2.2-1.907,2.188,2.188,0,0,1,1.744.961,7.927,7.927,0,0,1,4.351-1.418c4.139,0,6.225,2.558,6.225,6.42v8.588a2.282,2.282,0,0,1-4.53,0V54.231c0-1.646-.815-2.672-2.135-2.672a6.4,6.4,0,0,0-2.526.684,4.454,4.454,0,0,1,.065.619V62.8Z" transform="translate(45.417 30.1)"/><path class="a" d="M83.27,54.12c0-3.52,2.1-6.29,6.812-6.29,1.939,0,5.622.456,5.622,2.868,0,.782-.391,1.678-2.037,1.678a3.032,3.032,0,0,1-1.092-.2,5.346,5.346,0,0,0-2.233-.554,2.219,2.219,0,0,0-2.526,2.493v4.449a2.213,2.213,0,0,0,2.526,2.493,5.153,5.153,0,0,0,2.233-.554,2.353,2.353,0,0,1,1.027-.2c1.711,0,2.1.929,2.1,1.678,0,2.363-3.683,2.868-5.655,2.868-4.644,0-6.779-2.77-6.779-6.29V54.12Z" transform="translate(52.424 30.112)"/><path class="a" d="M96.88,58.154v1.092c0,1.124.847,1.841,2.64,1.841a7.076,7.076,0,0,0,2.966-.717,2.111,2.111,0,0,1,.994-.2,1.8,1.8,0,0,1,2.037,1.809c0,2.3-4.2,2.9-6.323,2.9-4.351,0-6.844-2.493-6.844-5.752V53.64c0-3.324,2.428-5.85,7.007-5.85,4.3,0,6.453,2.265,6.453,5.589s-1.939,5-6.388,5a17.48,17.48,0,0,1-2.526-.2Zm2.428-6.877c-1.581,0-2.428.815-2.428,2.135V54.83c1.059.1,2.037.13,2.363.13,1.255,0,2.037-.424,2.037-1.841C101.28,51.8,100.6,51.277,99.308,51.277Z" transform="translate(58.141 30.087)"/><path class="a" d="M113.186,46.874a2.021,2.021,0,0,1,2.265-2,2.047,2.047,0,0,1,2.265,2v3.65h2.428a1.966,1.966,0,1,1,0,3.911h-2.428v4.97c0,2.428.2,3.292,1.776,3.292.293,0,.489-.033.554-.033,2.07,0,2.705.554,2.705,1.776,0,1.907-1.515,2.167-3.161,2.167-5.1,0-6.42-2.493-6.42-6.975V46.874Z" transform="translate(71.248 28.249)"/><rect class="a" width="4.367" height="7.463" rx="1.34" transform="matrix(0.765, 0.645, -0.645, 0.765, 169.042, 97.314)"/><path class="a" d="M107.431,64.2v5.589a2.868,2.868,0,0,1-3.047,2.835c-1.45,0-1.5-1.907-1.5-3V52.9a2.531,2.531,0,0,0-.358-1.548,1.546,1.546,0,0,1-.456-1.059,2.11,2.11,0,0,1,2.167-2,2.184,2.184,0,0,1,1.711.929,8.9,8.9,0,0,1,4.644-1.45c3.781,0,5.981,2.64,5.981,6.453v3.813c0,3.878-1.548,6.812-6.29,6.812a6.092,6.092,0,0,1-2.868-.652Zm0-3.52a8.92,8.92,0,0,0,2.4.424c1.613,0,2.2-.994,2.2-3.064V54.223c0-1.711-.717-2.64-2.135-2.64a6.4,6.4,0,0,0-2.526.684,4.453,4.453,0,0,1,.065.619v7.789Z" transform="translate(64.26 30.074)"/></svg>